<?xml version="1.0" encoding="UTF-8"?>
<!DOCTYPE svg PUBLIC "-//W3C//DTD SVG 1.1//EN" "http://www.w3.org/Graphics/SVG/1.1/DTD/svg11.dtd">
<svg xmlns="http://www.w3.org/2000/svg" version="1.1" width="50px" height="50px" style="shape-rendering:geometricPrecision; text-rendering:geometricPrecision; image-rendering:optimizeQuality; fill-rule:evenodd; clip-rule:evenodd" xmlns:xlink="http://www.w3.org/1999/xlink">
<g><path style="opacity:0.883" fill="#000000" d="M 31.5,21.5 C 38.8286,20.9238 44.9953,23.2571 50,28.5C 54.7474,35.7976 52.914,39.7976 44.5,40.5C 45.9866,29.4883 41.3199,24.655 30.5,26C 25.2685,28.6326 23.4351,32.7992 25,38.5C 25.7845,40.286 26.9512,41.786 28.5,43C 34.5,45.3333 40.5,47.6667 46.5,50C 53.4412,55.3072 55.2745,62.1406 52,70.5C 50.9542,72.0905 49.7875,73.5905 48.5,75C 45.6714,76.2467 43.0048,77.7467 40.5,79.5C 43.4652,85.625 46.6319,91.625 50,97.5C 51.7889,99.229 53.9556,99.8957 56.5,99.5C 56.5,100.5 56.5,101.5 56.5,102.5C 52.1539,102.666 47.8206,102.499 43.5,102C 39.1182,94.7381 35.1182,87.2381 31.5,79.5C 28.9135,78.52 26.2469,78.1866 23.5,78.5C 23.3337,85.175 23.5004,91.8417 24,98.5C 26.5006,98.95 28.6672,99.95 30.5,101.5C 23.5,102.833 16.5,102.833 9.5,101.5C 11.3328,99.95 13.4994,98.95 16,98.5C 16.6667,83.1667 16.6667,67.8333 16,52.5C 14.103,50.9837 11.9363,50.317 9.5,50.5C 9.5,49.5 9.5,48.5 9.5,47.5C 13.226,47.8226 16.8927,47.4892 20.5,46.5C 14.6967,33.8921 18.3633,25.5588 31.5,21.5 Z M 23.5,51.5 C 29.2015,52.6753 34.8681,54.0087 40.5,55.5C 40.5072,58.0379 40.8405,60.5379 41.5,63C 41.3611,71.8146 37.0277,75.4813 28.5,74C 26.6217,72.4571 25.1217,70.6238 24,68.5C 23.5006,62.8431 23.3339,57.1764 23.5,51.5 Z"/></g>
</svg>
